# xmcd
#
# Track frame offsets: 
#        150
#        20303
#        47535
#        67830
#        87315
#        105805
#        125485
#        148528
#        169655
#        192083
#        206228
#        223723
#        242663
#        262340
#
# Disc length: 3691 seconds
#
# Revision: 2
# Processed by: cddbd v1.5.1PL0 Copyright (c) Steve Scherf et al.
# Submitted via: ExactAudioCopy v0.90b4
#
DISCID=c20e690e
DTITLE=Otis Spann - This Is The Blues
DYEAR=1991
DGENRE=Blues
TTITLE0=Country Boy
TTITLE1=Beat-Up Team
TTITLE2=My Daily Wish
TTITLE3=Great Northern Stomp
TTITLE4=I Got Rambling On My Mind
TTITLE5=Worried Life Blues
TTITLE6=The Hard Way
TTITLE7=Half Ain't Been Told
TTITLE8=Monkey Woman
TTITLE9=This Is The Blues
TTITLE10=Evil Ways
TTITLE11=Come Day Come Go
TTITLE12=Bad Condition
TTITLE13=My Home Is In The Delta
EXTD=
EXTT0=Spann\n
EXTT1=Spann\n
EXTT2=Lookwood Jr.\n
EXTT3=Spann\n
EXTT4=Lokwood Jr.\n
EXTT5=Spann\n
EXTT6=Spann\n
EXTT7=Spann\n
EXTT8=Spann\n
EXTT9=Spann\n
EXTT10=Spann\n
EXTT11=Spann\n
EXTT12=Oden\n
EXTT13=Morganfield\n
PLAYORDER=
